<svg width="131" height="36" viewBox="0 0 131 36" fill="none" xmlns="http://www.w3.org/2000/svg">
<circle cx="12" cy="8" r="5" fill="#FF3C41"/>
<circle cx="28" cy="17" r="5" fill="#FF3C41"/>
<path d="M1 7C9.72685 10.6713 18 36.5 30.5 29.5" stroke="#FF3C41" stroke-width="4"/>
<path d="M53.608 9.152V12.44H49.144V26H45.04V12.44H40.576V9.152H53.608ZM64.2597 26L60.7557 19.64H59.7717V26H55.6677V9.152H62.5557C63.8837 9.152 65.0117 9.384 65.9397 9.848C66.8837 10.312 67.5877 10.952 68.0517 11.768C68.5157 12.568 68.7477 13.464 68.7477 14.456C68.7477 15.576 68.4277 16.576 67.7877 17.456C67.1637 18.336 66.2357 18.96 65.0037 19.328L68.8917 26H64.2597ZM59.7717 16.736H62.3157C63.0677 16.736 63.6277 16.552 63.9957 16.184C64.3797 15.816 64.5717 15.296 64.5717 14.624C64.5717 13.984 64.3797 13.48 63.9957 13.112C63.6277 12.744 63.0677 12.56 62.3157 12.56H59.7717V16.736ZM75.4279 9.152V26H71.3239V9.152H75.4279ZM89.3701 9.152V12.44H82.5061V15.992H87.6421V19.184H82.5061V26H78.4021V9.152H89.3701ZM95.6311 22.832H101.007V26H91.5271V9.152H95.6311V22.832ZM107.069 12.44V15.848H112.565V19.016H107.069V22.712H113.285V26H102.965V9.152H113.285V12.44H107.069ZM124.541 26L121.037 19.64H120.053V26H115.949V9.152H122.837C124.165 9.152 125.293 9.384 126.221 9.848C127.165 10.312 127.869 10.952 128.333 11.768C128.797 12.568 129.029 13.464 129.029 14.456C129.029 15.576 128.709 16.576 128.069 17.456C127.445 18.336 126.517 18.96 125.285 19.328L129.173 26H124.541ZM120.053 16.736H122.597C123.349 16.736 123.909 16.552 124.277 16.184C124.661 15.816 124.853 15.296 124.853 14.624C124.853 13.984 124.661 13.48 124.277 13.112C123.909 12.744 123.349 12.56 122.597 12.56H120.053V16.736Z" fill="#FF3C41"/>
</svg>
